<?xml version="1.0" encoding="UTF-8"?>
<!DOCTYPE svg PUBLIC "-//W3C//DTD SVG 1.1//EN" "http://www.w3.org/Graphics/SVG/1.1/DTD/svg11.dtd">
<!-- Creator: CorelDRAW -->
<svg xmlns="http://www.w3.org/2000/svg" xml:space="preserve" width="8.5in" height="11in" version="1.1" style="shape-rendering:geometricPrecision; text-rendering:geometricPrecision; image-rendering:optimizeQuality; fill-rule:evenodd; clip-rule:evenodd"
viewBox="0 0 8500 11000"
 xmlns:xlink="http://www.w3.org/1999/xlink"
 xmlns:xodm="http://www.corel.com/coreldraw/odm/2003">
 <defs>
  <style type="text/css">
   <![CDATA[
    .fil1 {fill:#FEFEFE}
    .fil0 {fill:#844EE0}
   ]]>
  </style>
 </defs>
 <g id="Layer_x0020_1">
  <metadata id="CorelCorpID_0Corel-Layer"/>
  <g id="_2065741072192">
   <rect class="fil0" x="1737.79" y="2987.79" width="5024.37" height="5024.37" rx="880.09" ry="880.09"/>
   <path class="fil1" d="M3987.24 3899.95l525.62 0 0.35 28.59 0.14 8.41 0.85 22.22 0.71 14.5 1.41 21.16 0.64 9.76 2.27 25.04 0.85 8.85 2.76 24.27 1.13 9.05 4.17 29.58 0.07 0.7 5.38 32.2 0.14 0.7 5.52 28.8 1.07 5.52 5.24 23.99 2.06 9.26 6.93 28.09 0.28 1.2 7.51 27.74 1.62 5.65 7.01 23.7 2.83 9.06 6.5 20.09 3.47 10.54 7.78 22.15 3.19 8.7 7.92 20.8 3.68 9.48 7.36 18.11 5.73 13.73 8.91 20.16 2.83 6.37 9.77 21.09 4.46 9.48 11.1 22.21 2.76 5.52 11.47 21.79 3.81 7.08 12.32 22 3.32 5.88 12.24 20.87 4.17 6.93 13.94 22.43 2.69 4.18 11.82 18.04 7.78 11.68 10.89 15.77 6.02 8.56 14.21 19.6 4.18 5.73 15.71 20.52 3.75 4.89 18.68 23.28 19.53 23.2 1.84 2.19 16.06 18.26 6.23 7.01 16.91 18.25 4.25 4.52 17.97 18.54 4.53 4.6 14.72 14.5 9.9 9.62 15.92 14.93 5.45 5.02 17.12 15.28 8.63 7.57 12.66 10.91 11.96 10.04 16.91 13.72 5.94 4.74 16.13 12.59 11.18 8.5 18.75 13.79 4.52 3.33 21.87 15.35 4.39 2.97 19.74 13.22 9.13 5.94 17.61 11.18 8.21 5.1 22.15 13.3 4.88 2.83 19.11 10.89 10.97 6.09 17.33 9.34 10.75 5.65 19.67 9.98 7.71 3.82 21.02 9.98 9.69 4.53 25.33 11.25 0.64 0.28 25.12 10.54 7.57 3.05 24.33 9.48 4.39 1.62 21.87 8 10.96 3.82 25.19 8.35 3.18 1.06 22.71 6.93 11.68 3.54 18.18 5.1 14.44 3.89 16.77 4.25 13.79 3.4 20.59 4.67 11.89 2.56 18.4 3.67 15.43 2.97 14.07 2.48 19.81 3.25 15.2 2.27 15.08 2.12 21.08 2.62 12.09 1.42 20.94 1.98 12.87 1.14 24.91 1.83 6.02 0.36 25.4 1.19 11.25 0.43 21.15 0.43 20.09 0.29 0 525.61 -11.46 0.15 0 0.07c-330.63,2.83 -633.59,127.14 -866.22,330.34l-1.35 1.2c-87.8,76.91 -165.63,165.07 -231,262.21l-0.57 0.92c-35.44,52.71 -67.22,107.96 -94.96,165.56l-1.55 3.19c-8.7,18.19 -16.98,36.65 -24.91,55.26l-1.84 4.46 -10.89 26.74 -0.7 1.84 -10.54 27.74 -1.2 3.26 -9.7 27.59 -1.42 4.25 -8.49 26.25 -1.28 4.1 -8.56 28.72 -0.21 0.64c-5.8,20.44 -11.11,41.04 -15.92,61.91l-0.99 4.11 -6.22 28.93 -0.36 1.63c-6.43,31.42 -11.67,63.26 -15.84,95.38l-0.78 6.01 -3.04 27.1 -0.7 6.58 -2.34 26.82 -0.64 8.63 -1.41 22.15 -0.71 13.94 -0.85 22.71 -0.14 8.13 -0.35 28.73 -525.62 0 -0.14 -11.53 -0.14 0c-2.56,-295.89 -102.45,-569.7 -269.08,-790.73l-3.46 -4.6 -4.04 -5.19 486.12 -486.12c20.7,-20.69 54.46,-20.69 75.16,0l123.95 123.95c15.53,15.53 37.64,19.93 57.92,11.52 20.3,-8.4 32.81,-27.15 32.81,-49.09l0 -552.21c0,-29.26 -23.88,-53.14 -53.14,-53.14l-552.21 0c-21.95,0 -40.69,12.51 -49.09,32.81 -8.41,20.27 -4.01,42.39 11.52,57.92l123.95 123.94c20.69,20.7 20.69,54.46 0,75.16l-483.84 483.83 -9.46 -7.61 -11.18 -8.63 -13.65 -10.4 -14.86 -10.9 -8.84 -6.51 -18.69 -13.09 -7.35 -5.1 -21.79 -14.5 -4.04 -2.62 -19.67 -12.45 -9.28 -5.8 -18.75 -11.25 -8.35 -4.88 -21.22 -12.09 -5.38 -2.97 -26.39 -14.15 -0.78 -0.43 -27.31 -13.87 -1.63 -0.78c-76.97,-37.7 -158.13,-68.41 -242.4,-90.84l-0.56 -0.14c-42.1,-11.25 -85.04,-20.44 -128.63,-27.45l-0.64 -0.07c-65.59,-10.68 -132.81,-16.27 -201.22,-16.98l0 -0.07 -11.53 -0.15 0 -525.61 20.23 -0.29 20.87 -0.43 11.68 -0.43 24.91 -1.19 7.01 -0.43 23.7 -1.7 14.5 -1.27 18.81 -1.84 14.94 -1.7 18.11 -2.26 19.17 -2.7 10.9 -1.63 24.26 -4.03 8.64 -1.49 21.65 -4.17 12.52 -2.48 17.19 -3.75 15.42 -3.46 21.3 -5.24 8 -2.06 22.71 -6.15 10.48 -2.9 19.1 -5.74 13.58 -4.17 15.5 -5.02 14.57 -4.81 19.03 -6.72 11.82 -4.25 17.83 -6.79 11.96 -4.67 18.32 -7.43 12.11 -5.1 20.58 -8.99 7.15 -3.18 20.3 -9.48 9.98 -4.68 22.15 -11.03 5.38 -2.76 22.36 -11.74 6.23 -3.33c27.31,-14.85 54.2,-30.63 80.3,-47.33l1.42 -0.93 20.66 -13.51 8.99 -6.02 19.88 -13.79 4.17 -2.91c16.98,-12.02 33.68,-24.48 50.1,-37.29l0.35 -0.21c24.83,-19.46 48.96,-39.69 72.37,-60.84l1.35 -1.13c268.79,-242.83 439.3,-592.69 442.49,-980.35l0.14 0 0.14 -11.46z"/>
  </g>
 </g>
</svg>
